<svg xmlns="http://www.w3.org/2000/svg" version="1.1" xmlns:xlink="http://www.w3.org/1999/xlink" xmlns:svgjs="http://svgjs.dev/svgjs" width="1440" height="560" preserveAspectRatio="none" viewBox="0 0 1440 560"><g mask="url(&quot;#SvgjsMask3306&quot;)" fill="none"><rect width="1440" height="560" x="0" y="0" fill="url(&quot;#SvgjsLinearGradient3307&quot;)"></rect><path d="M1440 0L853.81 0L1440 60.33z" fill="rgba(255, 255, 255, .1)"></path><path d="M853.81 0L1440 60.33L1440 214.13L438.05999999999995 0z" fill="rgba(255, 255, 255, .075)"></path><path d="M438.05999999999995 0L1440 214.13L1440 342.81L380.55999999999995 0z" fill="rgba(255, 255, 255, .05)"></path><path d="M380.55999999999995 0L1440 342.81L1440 355.37L174.63999999999996 0z" fill="rgba(255, 255, 255, .025)"></path><path d="M0 560L467.17 560L0 473.90999999999997z" fill="rgba(0, 0, 0, .1)"></path><path d="M0 473.90999999999997L467.17 560L627.27 560L0 299.5z" fill="rgba(0, 0, 0, .075)"></path><path d="M0 299.5L627.27 560L795.29 560L0 136.43z" fill="rgba(0, 0, 0, .05)"></path><path d="M0 136.43L795.29 560L798.18 560L0 76.78z" fill="rgba(0, 0, 0, .025)"></path></g><defs><mask id="SvgjsMask3306"><rect width="1440" height="560" fill="#ffffff"></rect></mask><linearGradient x1="15.28%" y1="139.29%" x2="84.72%" y2="-39.29%" gradientUnits="userSpaceOnUse" id="SvgjsLinearGradient3307"><stop stop-color="rgba(243, 29, 61, 1)" offset="0"></stop><stop stop-color="rgba(253, 226, 126, 1)" offset="1"></stop></linearGradient></defs></svg>