<svg xmlns="http://www.w3.org/2000/svg" version="1.1" xmlns:xlink="http://www.w3.org/1999/xlink" xmlns:svgjs="http://svgjs.dev/svgjs" width="1440" height="1080" preserveAspectRatio="none" viewBox="0 0 1440 1080"><g mask="url(&quot;#SvgjsMask1172&quot;)" fill="none"><rect width="1440" height="1080" x="0" y="0" fill="url(&quot;#SvgjsLinearGradient1173&quot;)"></rect><path d="M1440 0L1373.52 0L1440 318.37z" fill="rgba(255, 255, 255, .1)"></path><path d="M1373.52 0L1440 318.37L1440 487.52L913.88 0z" fill="rgba(255, 255, 255, .075)"></path><path d="M913.88 0L1440 487.52L1440 815.56L877.81 0z" fill="rgba(255, 255, 255, .05)"></path><path d="M877.81 0L1440 815.56L1440 875.81L469.40999999999997 0z" fill="rgba(255, 255, 255, .025)"></path><path d="M0 1080L588.21 1080L0 986.01z" fill="rgba(0, 0, 0, .1)"></path><path d="M0 986.01L588.21 1080L1049.54 1080L0 483.82z" fill="rgba(0, 0, 0, .075)"></path><path d="M0 483.82000000000005L1049.54 1080L1287 1080L0 271.55000000000007z" fill="rgba(0, 0, 0, .05)"></path><path d="M0 271.55000000000007L1287 1080L1298.04 1080L0 226.22000000000008z" fill="rgba(0, 0, 0, .025)"></path></g><defs><mask id="SvgjsMask1172"><rect width="1440" height="1080" fill="#ffffff"></rect></mask><linearGradient x1="6.25%" y1="-8.33%" x2="93.75%" y2="108.33%" gradientUnits="userSpaceOnUse" id="SvgjsLinearGradient1173"><stop stop-color="rgba(246, 81, 81, 1)" offset="0.16"></stop><stop stop-color="rgba(95, 122, 219, 1)" offset="0.81"></stop></linearGradient></defs></svg>