<!--?xml version="1.0" standalone="no"?-->
              <svg id="sw-js-blob-svg" viewBox="0 0 100 100" xmlns="http://www.w3.org/2000/svg" version="1.1">
                    <defs> 
                        <linearGradient id="sw-gradient" x1="0" x2="1" y1="1" y2="0">
                            <stop id="stop1" stop-color="rgba(46, 40, 40, 1)" offset="0%"></stop>
                            <stop id="stop2" stop-color="rgba(46, 40, 40, 1)" offset="100%"></stop>
                        </linearGradient>
                    </defs>
                <path fill="url(#sw-gradient)" d="M17.4,-29.4C23.3,-26.6,29.6,-23.6,32.7,-18.7C35.8,-13.8,35.8,-6.9,35.8,0C35.9,7,36.1,13.9,34.1,20.9C32.2,27.8,28.1,34.7,22.1,39.3C16,43.8,8,46,0.1,45.8C-7.7,45.5,-15.4,42.8,-22.5,38.9C-29.6,34.9,-36,29.7,-40.3,23C-44.6,16.3,-46.7,8.2,-46.5,0.1C-46.2,-7.9,-43.6,-15.8,-39.3,-22.5C-35,-29.2,-29.1,-34.7,-22.3,-37C-15.5,-39.3,-7.7,-38.4,-1,-36.6C5.7,-34.8,11.4,-32.2,17.4,-29.4Z" width="100%" height="100%" transform="translate(50 50)" stroke-width="0" style="transition: all 0.3s ease 0s;" stroke="url(#sw-gradient)"></path>
              </svg>